<?xml version="1.0" encoding="iso-8859-1"?>
<!-- Generator: Adobe Illustrator 24.1.3, SVG Export Plug-In . SVG Version: 6.00 Build 0)  -->
<svg version="1.1" id="&#x56FE;&#x5C42;_1" xmlns="http://www.w3.org/2000/svg" xmlns:xlink="http://www.w3.org/1999/xlink" x="0px"
	 y="0px" viewBox="0 0 396.85 396.85" style="enable-background:new 0 0 396.85 396.85;" xml:space="preserve">
<g>
	<linearGradient id="SVGID_1_" gradientUnits="userSpaceOnUse" x1="123.4798" y1="328.4704" x2="272.7032" y2="70.0079">
		<stop  offset="0" style="stop-color:#593819"/>
		<stop  offset="0.0974" style="stop-color:#5F3E1E"/>
		<stop  offset="0.2267" style="stop-color:#6E4F2C"/>
		<stop  offset="0.374" style="stop-color:#886A43"/>
		<stop  offset="0.5333" style="stop-color:#AC9063"/>
		<stop  offset="0.6425" style="stop-color:#C8AF7C"/>
	</linearGradient>
	<rect x="88.852" y="90" style="fill:url(#SVGID_1_);" width="218.478" height="218.478"/>
	<path style="fill:#FFFFFF;" d="M262.498,231.928c-1.954-2.032-5.432-1.971-7.326,0.068c-0.933,1.011-1.384,2.425-1.384,4.319v7.237
		h-8.504l3.254-27.967c2.125-0.034,3.721-0.466,4.874-1.324c1.253-0.941,1.917-2.224,1.917-3.709c0-1.486-0.665-2.767-1.928-3.716
		c-1.194-0.887-2.874-1.318-5.138-1.318h-15.289c-2.22,0-3.878,0.432-5.074,1.325c-1.253,0.941-1.919,2.222-1.919,3.708
		c0,1.485,0.666,2.769,1.919,3.709c1.192,0.892,2.85,1.325,5.074,1.325h3.754l-3.212,27.965h-9.265l-6.785-26.949
		c-0.349-1.035-1.468-1.75-2.743-1.75h-9.532c-1.284,0-2.405,0.722-2.752,1.765l-6.676,26.933h-9.161l-3.268-27.965h3.676
		c2.272,0,3.951-0.433,5.146-1.325c1.253-0.941,1.917-2.224,1.917-3.709c0-1.486-0.665-2.767-1.921-3.711
		c-1.194-0.89-2.874-1.322-5.142-1.322h-15.442c-2.215,0-3.873,0.432-5.062,1.321c-1.262,0.941-1.93,2.224-1.93,3.712
		c0,1.49,0.668,2.773,1.921,3.709c1.147,0.858,2.723,1.291,4.819,1.324l3.447,27.967h-16.717V118.854h5.049
		c1.875,0,3.276-0.433,4.284-1.325c1.063-0.942,1.625-2.225,1.625-3.709c0-1.482-0.562-2.765-1.627-3.711
		c-1.008-0.89-2.41-1.322-4.282-1.322H139.25c-1.875,0-3.276,0.432-4.287,1.325c-1.057,0.941-1.62,2.222-1.62,3.708
		c0,1.486,0.562,2.769,1.62,3.709c1.008,0.892,2.41,1.325,4.287,1.325h5.166v124.697h-5.166c-1.875,0-3.276,0.432-4.287,1.325
		c-1.057,0.941-1.62,2.222-1.62,3.708c0,1.426,0.55,2.686,1.585,3.645c1.012,0.934,2.425,1.39,4.322,1.39h36.753l4.182,33.934
		c0.164,1.219,1.388,2.139,2.838,2.139h9.754c1.278,0,2.405-0.719,2.746-1.76l8.801-34.313h11.61l8.898,34.325
		c0.349,1.035,1.468,1.748,2.744,1.748h9.751c1.457,0,2.684-0.928,2.839-2.153l3.946-33.92h17.392c1.331,0,2.412-1.081,2.412-2.412
		v-14.892C263.917,234.361,263.453,232.927,262.498,231.928z M189.54,268.664l-1.758-15.045h5.487L189.54,268.664z M206.906,243.551
		l3.192-12.445l3.227,12.445H206.906z M230.613,268.823l-3.827-15.204h5.573L230.613,268.823z"/>
</g>
</svg>
